<svg xmlns="http://www.w3.org/2000/svg" xmlns:xlink="http://www.w3.org/1999/xlink" width="23" height="23" viewBox="0 0 23 23">
  <defs>
    <clipPath id="clip-path">
      <rect id="Rectangle_14" data-name="Rectangle 14" width="23" height="23" transform="translate(360 3143)" fill="#fff"/>
    </clipPath>
  </defs>
  <g id="Mask_Group_3" data-name="Mask Group 3" transform="translate(-360 -3143)" clip-path="url(#clip-path)">
    <g id="Camada_x0020_1" transform="translate(360 3145.841)">
      <g id="_2371453560880" transform="translate(0 0)">
        <path id="Path_1" data-name="Path 1" d="M61.95,45.395a2.677,2.677,0,0,1,.22-1.08,2.73,2.73,0,0,1,.6-.871,2.841,2.841,0,0,1,.892-.591,2.874,2.874,0,0,1,1.129-.215,2.831,2.831,0,0,1,1.112.215,2.953,2.953,0,0,1,.9.591,2.639,2.639,0,0,1,.822,1.951,2.718,2.718,0,0,1-.215,1.086,2.665,2.665,0,0,1-.607.881,2.83,2.83,0,0,1-.9.58,2.928,2.928,0,0,1-1.112.21,2.971,2.971,0,0,1-1.129-.21,2.74,2.74,0,0,1-1.709-2.547Z" transform="translate(-44.724 -30.933)" fill="#373435"/>
        <path id="Path_2" data-name="Path 2" d="M51.411,45.831l1.258-10.625c.022-.172.038-.333.048-.478s.016-.279.016-.408a1.8,1.8,0,0,0-.3-1.188,1.15,1.15,0,0,0-.9-.328,2.323,2.323,0,0,0-1.145.339,4.469,4.469,0,0,0-1.134.951,7.244,7.244,0,0,0-.994,1.489c-1.146,2.231-1.333,7.584-1.628,10.248h-5l2-16.735h2.58a1.835,1.835,0,0,1,1.209.365,1.471,1.471,0,0,1,.435,1.193V32a8.227,8.227,0,0,1,2.644-2.391,6.227,6.227,0,0,1,2.967-.768,4.289,4.289,0,0,1,1.72.339,3.7,3.7,0,0,1,1.343.994,4.718,4.718,0,0,1,.887,1.607,6.823,6.823,0,0,1,.322,2.193c0,.193-.005.392-.022.6s-.038.414-.059.629L56.409,45.831h-5Z" transform="translate(-41.641 -28.838)" fill="#373435"/>
      </g>
    </g>
  </g>
</svg>
